<?xml version="1.0" encoding="UTF-8" standalone="no"?>
<svg
   version="1.2"
   viewBox="0 0 22961.658 7331.8066"
   preserveAspectRatio="xMidYMid"
   fill-rule="evenodd"
   stroke-width="28.222"
   stroke-linejoin="round"
   xml:space="preserve"
   id="svg159"
   sodipodi:docname="architecture.svg"
   width="22961.658"
   height="7331.8066"
   inkscape:version="1.4 (e7c3feb100, 2024-10-09)"
   xmlns:inkscape="http://www.inkscape.org/namespaces/inkscape"
   xmlns:sodipodi="http://sodipodi.sourceforge.net/DTD/sodipodi-0.dtd"
   xmlns="http://www.w3.org/2000/svg"
   xmlns:svg="http://www.w3.org/2000/svg"><defs
   id="defs1" /><sodipodi:namedview
   id="namedview159"
   pagecolor="#ffffff"
   bordercolor="#000000"
   borderopacity="0.25"
   inkscape:showpageshadow="2"
   inkscape:pageopacity="0.0"
   inkscape:pagecheckerboard="0"
   inkscape:deskcolor="#d1d1d1"
   inkscape:zoom="0.082996892"
   inkscape:cx="12139.009"
   inkscape:cy="3578.4473"
   inkscape:window-width="2560"
   inkscape:window-height="1371"
   inkscape:window-x="0"
   inkscape:window-y="32"
   inkscape:window-maximized="1"
   inkscape:current-layer="svg159" />

 <rect
   class="BoundingBox"
   stroke="none"
   fill="none"
   x="0"
   y="0"
   width="2910"
   height="2124"
   id="rect113" /><path
   fill="#f2f2f2"
   stroke="none"
   d="m 148,2105 v -1 h 7 l 6,-1 h 7 l 6,-2 7,-1 6,-2 6,-2 6,-3 6,-2 6,-3 6,-4 5,-3 6,-4 5,-4 5,-5 4,-4 5,-5 4,-5 4,-6 3,-5 4,-6 3,-6 2,-6 3,-6 2,-6 2,-6 1,-7 2,-6 v -7 l 1,-6 v -7 0 0 0 0 0 0 0 0 0 0 0 0 0 0 0 0 H 148 v 0 h 3 3 l 4,-1 h 3 l 3,-1 3,-1 3,-1 3,-1 3,-1 3,-2 3,-2 3,-1 2,-2 3,-2 2,-2 3,-3 2,-2 2,-2 2,-3 2,-3 1,-2 2,-3 1,-3 2,-3 1,-3 1,-3 v -4 l 1,-3 v -3 l 1,-3 v -3 -4 -3 l -1,-3 v -3 l -1,-3 v -4 l -1,-3 -1,-3 -2,-3 -1,-3 -2,-2 -1,-3 -2,-3 -2,-3 -2,-2 -2,-2 -3,-3 -2,-2 -3,-2 -2,-2 -3,-1 -3,-2 -3,-2 -3,-1 -3,-1 -3,-1 -3,-1 -3,-1 h -3 l -4,-1 h -3 -3 v 0 0 0 0 0 0 0 0 0 0 0 0 0 0 0 0 0 0 0 0 0 0 0 0 0 0 0 0 0 0 0 0 h 130 v -1696 0 0 0 0 0 0 0 0 0 0 0 0 0 0 0 0 0 0 0 0 0 0 0 0 0 0 0 0 0 0 0 0 0 -7 l 1,-6 1,-7 1,-6 1,-7 2,-6 2,-6 3,-7 2,-6 3,-5 4,-6 4,-6 3,-5 5,-5 4,-5 5,-5 5,-4 5,-4 5,-4 6,-4 6,-3 5,-3 6,-3 7,-2 6,-2 6,-2 7,-2 6,-1 h 7 l 6,-1 h 7 2352 v 0 0 0 0 0 0 0 0 0 0 0 0 0 0 0 0 0 0 0 0 0 0 0 0 0 0 0 0 0 0 0 0 0 h 6 l 7,1 h 6 l 7,2 6,1 6,2 6,2 6,2 6,3 6,3 6,3 5,4 5,3 6,4 4,5 5,4 4,5 5,5 4,5 3,5 4,6 3,6 2,6 3,6 2,6 2,6 2,6 1,6 1,7 1,6 v 7 6 7 l -1,6 -1,7 -1,6 -2,6 -2,6 -2,6 -3,6 -2,6 -3,6 -4,6 -3,5 -4,5 -5,5 -4,5 -5,4 -4,5 -6,4 -5,3 -5,4 -6,3 -6,3 -6,3 -6,2 -6,2 -6,2 -6,1 -7,2 h -6 l -7,1 h -6 -130 v 1696 0 0 0 0 0 0 0 0 0 0 0 0 0 0 0 0 h -1 v 7 l -1,6 v 7 l -2,6 -1,7 -2,6 -2,6 -3,6 -2,6 -3,6 -4,6 -3,5 -4,6 -4,5 -5,5 -4,4 -5,5 -5,4 -6,4 -5,3 -6,4 -6,3 -6,2 -6,3 -6,2 -6,2 -7,1 -6,2 h -7 l -6,1 h -7 z M 539,148 v 0 0 0 0 0 0 0 0 0 0 0 0 0 0 0 0 h -1 v 7 l -1,7 -1,6 -1,7 -1,6 -2,7 -3,6 -2,7 -3,6 -3,6 -4,5 -4,6 -4,5 -4,6 -5,5 -5,4 -5,5 -5,4 -6,4 -5,3 -6,4 -6,2 -7,3 -6,2 -7,2 -6,2 -7,1 -6,1 -7,1 h -7 v 0 0 0 0 0 0 0 0 0 0 0 0 0 0 0 0 0 0 0 0 0 0 0 0 0 0 0 0 0 0 0 0 0 h -3 -3 l -4,-1 h -3 l -3,-1 -3,-1 -3,-1 -3,-1 -3,-1 -3,-2 -3,-2 -3,-1 -2,-2 -3,-2 -2,-2 -3,-3 -2,-2 -2,-2 -2,-3 -2,-3 -1,-2 -2,-3 -1,-3 -2,-3 -1,-3 -1,-3 v -4 l -1,-3 v -3 l -1,-3 v -3 -4 -3 l 1,-3 v -3 l 1,-3 v -4 l 1,-3 1,-3 2,-3 1,-3 2,-2 1,-3 2,-3 2,-3 2,-2 2,-2 3,-3 2,-2 3,-2 2,-2 3,-1 3,-2 3,-2 3,-1 3,-1 3,-1 3,-1 3,-1 h 3 l 4,-1 h 3 3 z"
   id="path113" /><path
   fill="#f2f2f2"
   stroke="none"
   d="m 539,148 v 0 0 0 0 0 0 0 0 0 0 0 0 0 0 0 0 h -1 v 7 l -1,7 -1,6 -1,7 -1,6 -2,7 -3,6 -2,7 -3,6 -3,6 -4,5 -4,6 -4,5 -4,6 -5,5 -5,4 -5,5 -5,4 -6,4 -5,3 -6,4 -6,2 -7,3 -6,2 -7,2 -6,2 -7,1 -6,1 -7,1 h -7 v 0 0 0 0 0 0 0 0 0 0 0 0 0 0 0 0 0 0 0 0 0 0 0 0 0 0 0 0 0 0 0 0 0 h -3 -3 l -4,-1 h -3 l -3,-1 -3,-1 -3,-1 -3,-1 -3,-1 -3,-2 -3,-2 -3,-1 -2,-2 -3,-2 -2,-2 -3,-3 -2,-2 -2,-2 -2,-3 -2,-3 -1,-2 -2,-3 -1,-3 -2,-3 -1,-3 -1,-3 v -4 l -1,-3 v -3 l -1,-3 v -3 -4 -3 l 1,-3 v -3 l 1,-3 v -4 l 1,-3 1,-3 2,-3 1,-3 2,-2 1,-3 2,-3 2,-3 2,-2 2,-2 3,-3 2,-2 3,-2 2,-2 3,-1 3,-2 3,-2 3,-1 3,-1 3,-1 3,-1 3,-1 h 3 l 4,-1 h 3 3 z M 278,1974 v 0 0 0 0 0 0 0 0 0 0 0 0 0 0 0 0 0 6 l -1,7 v 6 l -2,7 -1,6 -2,6 -2,6 -2,6 -3,6 -3,6 -3,5 -3,6 -4,5 -4,5 -4,5 -5,5 -5,4 -4,4 -6,4 -5,4 -5,3 -6,3 -6,3 -6,3 -6,2 -6,2 -6,2 -6,1 -7,1 -6,1 h -7 -6 -7 l -6,-1 -6,-1 -7,-1 -6,-2 -6,-1 -6,-3 -6,-2 -6,-3 -6,-3 -5,-3 -6,-4 -5,-3 -5,-4 -5,-5 -4,-4 -5,-5 -4,-5 -3,-5 -4,-6 -3,-5 -3,-6 -3,-6 -2,-6 -3,-6 -1,-6 -2,-6 -1,-7 -1,-6 -1,-6 v -7 -6 -7 l 1,-6 1,-7 1,-6 2,-6 2,-6 2,-6 3,-6 3,-6 3,-6 3,-5 4,-5 4,-6 4,-4 4,-5 5,-5 5,-4 5,-4 5,-4 6,-3 5,-3 6,-3 6,-3 6,-2 6,-2 6,-2 6,-1 7,-2 h 6 l 7,-1 h 6 v 0 0 0 0 0 0 0 0 0 0 0 0 0 0 0 0 0 0 0 0 0 0 0 0 0 0 0 0 0 0 0 0 0 h 3 3 l 4,1 h 3 l 3,1 3,1 3,1 3,1 3,1 3,2 3,2 3,1 2,2 3,2 2,2 3,3 2,2 2,2 2,3 2,3 1,3 2,2 1,3 2,3 1,3 1,3 v 4 l 1,3 v 3 l 1,3 v 3 4 3 l -1,3 v 3 l -1,3 v 4 l -1,3 -1,3 -2,3 -1,3 -2,3 -1,2 -2,3 -2,3 -2,2 -2,2 -3,3 -2,2 -3,2 -2,2 -3,1 -3,2 -3,2 -3,1 -3,1 -3,1 -3,1 -3,1 h -3 l -4,1 h -3 -3 z"
   id="path114" /><path
   fill="none"
   stroke="#404040"
   stroke-width="35"
   stroke-linejoin="miter"
   d="m 278,1844 v -1696 0 0 0 0 0 0 0 0 0 0 0 0 0 0 0 0 0 0 0 0 0 0 0 0 0 0 0 0 0 0 0 0 0 -7 l 1,-6 1,-7 1,-6 1,-7 2,-6 2,-6 3,-7 2,-6 3,-5 4,-6 4,-6 3,-5 5,-5 4,-5 5,-5 5,-4 5,-4 5,-4 6,-4 6,-3 5,-3 6,-3 7,-2 6,-2 6,-2 7,-2 6,-1 h 7 l 6,-1 h 7 2352 v 0 0 0 0 0 0 0 0 0 0 0 0 0 0 0 0 0 0 0 0 0 0 0 0 0 0 0 0 0 0 0 0 0 h 6 l 7,1 h 6 l 7,2 6,1 6,2 6,2 6,2 6,3 6,3 6,3 5,4 5,3 6,4 4,5 5,4 4,5 5,5 4,5 3,5 4,6 3,6 2,6 3,6 2,6 2,6 2,6 1,6 1,7 1,6 v 7 6 7 l -1,6 -1,7 -1,6 -2,6 -2,6 -2,6 -3,6 -2,6 -3,6 -4,6 -3,5 -4,5 -5,5 -4,5 -5,4 -4,5 -6,4 -5,3 -5,4 -6,3 -6,3 -6,3 -6,2 -6,2 -6,2 -6,1 -7,2 h -6 l -7,1 h -6 -130 v 1696 0 0 0 0 0 0 0 0 0 0 0 0 0 0 0 0 h -1 v 7 l -1,6 v 7 l -2,6 -1,7 -2,6 -2,6 -3,6 -2,6 -3,6 -4,6 -3,5 -4,6 -4,5 -5,5 -4,4 -5,5 -5,4 -6,4 -5,3 -6,4 -6,3 -6,2 -6,3 -6,2 -6,2 -7,1 -6,2 h -7 l -6,1 h -7 l -2352,1 v 0 0 0 0 0 0 0 0 0 0 0 0 0 0 0 0 0 0 0 0 0 0 0 0 0 0 0 0 0 0 0 0 -1 h -6 l -7,-1 h -6 l -7,-2 -6,-1 -6,-2 -6,-2 -6,-2 -6,-3 -6,-3 -6,-3 -5,-4 -5,-3 -6,-4 -4,-5 -5,-4 -4,-5 -5,-5 -4,-5 -3,-5 -4,-6 -3,-6 -2,-6 -3,-6 -2,-6 -2,-6 -2,-6 -1,-6 -1,-7 -1,-6 v -7 -6 -7 l 1,-6 1,-7 1,-6 2,-6 2,-6 2,-6 3,-6 2,-6 3,-6 4,-6 3,-5 4,-5 5,-5 4,-5 5,-4 4,-5 6,-4 5,-3 5,-4 6,-3 6,-3 6,-3 6,-2 6,-2 6,-2 6,-1 7,-2 h 6 l 7,-1 h 6 z"
   id="path115" /><path
   fill="none"
   stroke="#404040"
   stroke-width="35"
   stroke-linejoin="miter"
   d="m 409,18 v 0 0 0 0 0 0 0 0 0 0 0 0 0 0 0 0 0 0 0 0 0 0 0 0 0 0 0 0 0 0 0 0 0 h 7 l 6,1 7,1 6,1 6,1 7,2 6,2 6,3 6,3 6,3 5,3 6,4 5,4 5,4 5,4 5,5 4,5 4,5 4,5 4,6 3,5 3,6 3,6 2,6 2,6 2,7 1,6 2,6 v 7 l 1,6 v 7 7 l -1,6 v 7 l -2,6 -1,6 -2,7 -2,6 -2,6 -3,6 -3,6 -3,5 -4,6 -4,5 -4,5 -4,5 -5,5 -5,4 -5,4 -5,4 -6,4 -5,3 -6,3 -6,3 -6,3 -6,2 -7,2 -6,1 -6,1 -7,1 -6,1 h -7 v 0 0 0 0 0 0 0 0 0 0 0 0 0 0 0 0 0 0 0 0 0 0 0 0 0 0 0 0 0 0 0 0 0 h -3 -3 l -4,-1 h -3 l -3,-1 -3,-1 -3,-1 -3,-1 -3,-1 -3,-2 -3,-2 -3,-1 -2,-2 -3,-2 -2,-2 -3,-3 -2,-2 -2,-2 -2,-3 -2,-3 -1,-2 -2,-3 -1,-3 -2,-3 -1,-3 -1,-3 v -4 l -1,-3 v -3 l -1,-3 v -3 -4 -3 l 1,-3 v -3 l 1,-3 v -4 l 1,-3 1,-3 2,-3 1,-3 2,-2 1,-3 2,-3 2,-3 2,-2 2,-2 3,-3 2,-2 3,-2 2,-2 3,-1 3,-2 3,-2 3,-1 3,-1 3,-1 3,-1 3,-1 h 3 l 4,-1 h 3 3 130"
   id="path116" /><path
   fill="none"
   stroke="#404040"
   stroke-width="35"
   stroke-linejoin="miter"
   d="M 2631,278 H 409"
   id="path117" /><path
   fill="none"
   stroke="#404040"
   stroke-width="35"
   stroke-linejoin="miter"
   d="m 148,1844 v 0 0 0 0 0 0 0 0 0 0 0 0 0 0 0 0 0 0 0 0 0 0 0 0 0 0 0 0 0 0 0 0 0 h 3 3 l 4,1 h 3 l 3,1 3,1 3,1 3,1 3,1 3,2 3,2 3,1 2,2 3,2 2,2 3,3 2,2 2,2 2,3 2,3 1,3 2,2 1,3 2,3 1,3 1,3 v 4 l 1,3 v 3 l 1,3 v 3 4 3 l -1,3 v 3 l -1,3 v 4 l -1,3 -1,3 -2,3 -1,3 -2,3 -1,2 -2,3 -2,3 -2,2 -2,2 -3,3 -2,2 -3,2 -2,2 -3,1 -3,2 -3,2 -3,1 -3,1 -3,1 -3,1 -3,1 h -3 l -4,1 h -3 -3 130"
   id="path118" /><path
   fill="none"
   stroke="#404040"
   stroke-width="35"
   stroke-linejoin="miter"
   d="m 148,2105 v -1 h 7 l 6,-1 h 7 l 6,-2 7,-1 6,-2 6,-2 6,-3 6,-2 6,-3 6,-4 5,-3 6,-4 5,-4 5,-5 4,-4 5,-5 4,-5 4,-6 3,-5 4,-6 3,-6 2,-6 3,-6 2,-6 2,-6 1,-7 2,-6 v -7 l 1,-6 v -7 0 0 0 0 0 0 0 0 0 0 0 0 0 0 0 0 -130"
   id="path119" /><rect
   class="BoundingBox"
   stroke="none"
   fill="none"
   x="5293"
   y="120"
   width="3636"
   height="1883"
   id="rect123" /><path
   fill="#3aa5ac"
   stroke="none"
   d="M 5311,138 H 8910 V 1984 H 5311 Z"
   id="path123" /><path
   fill="none"
   stroke="#28787d"
   stroke-width="35"
   stroke-linejoin="miter"
   d="M 5311,138 H 8910 V 1984 H 5311 Z"
   id="path124" /><text
   class="SVGTextShape"
   id="text126"
   x="-4093"
   y="-8614"><tspan
     class="TextParagraph"
     id="tspan126"><tspan
       class="TextPosition"
       x="5799"
       y="1314"
       id="tspan125"><tspan
         font-family="'Source Sans Pro', sans-serif"
         font-size="635px"
         font-weight="400"
         fill="#ffffff"
         stroke="none"
         style="white-space:pre"
         id="tspan124">compiler</tspan></tspan></tspan></text><text
   xml:space="preserve"
   style="font-style:normal;font-variant:normal;font-weight:normal;font-stretch:normal;font-size:533.333px;font-family:Sans;-inkscape-font-specification:Sans;text-align:center;letter-spacing:0px;writing-mode:lr-tb;direction:ltr;text-anchor:middle;visibility:hidden;fill:#ffffff;fill-opacity:1;stroke:#000000;stroke-width:35;stroke-dasharray:none;stroke-opacity:0"
   x="20959.064"
   y="6229.1309"
   id="text159"><tspan
     sodipodi:role="line"
     id="tspan159"
     x="20959.064"
     y="6229.1309">Managed</tspan><tspan
     sodipodi:role="line"
     x="20959.064"
     y="6895.7969"
     id="tspan160">Infrastructure</tspan></text><rect
   class="BoundingBox"
   stroke="none"
   fill="none"
   x="2632"
   y="961"
   width="2680"
   height="201"
   id="rect126" /><path
   fill="none"
   stroke="#3aa5ac"
   stroke-width="18"
   stroke-linejoin="miter"
   d="M 2632,1061 H 5024"
   id="path126" /><path
   fill="#3aa5ac"
   stroke="none"
   d="M 5311,1061 5011,961 v 200 z"
   id="path127" /><rect
   class="BoundingBox"
   stroke="none"
   fill="none"
   x="11310"
   y="120"
   width="3636"
   height="1883"
   id="rect127" /><path
   fill="#3aa5ac"
   stroke="none"
   d="m 11328,138 h 3599 v 1846 h -3599 z"
   id="path128" /><path
   fill="none"
   stroke="#28787d"
   stroke-width="35"
   stroke-linejoin="miter"
   d="m 11328,138 h 3599 v 1846 h -3599 z"
   id="path129" /><text
   class="SVGTextShape"
   id="text131"
   x="-4093"
   y="-8614"><tspan
     class="TextParagraph"
     id="tspan131"><tspan
       class="TextPosition"
       x="12193"
       y="1314"
       id="tspan130"><tspan
         font-family="'Source Sans Pro', sans-serif"
         font-size="635px"
         font-weight="400"
         fill="#ffffff"
         stroke="none"
         style="white-space:pre"
         id="tspan129">server</tspan></tspan></tspan></text><rect
   class="BoundingBox"
   stroke="none"
   fill="none"
   x="8909"
   y="961"
   width="2420"
   height="201"
   id="rect131" /><path
   fill="none"
   stroke="#3aa5ac"
   stroke-width="18"
   stroke-linejoin="miter"
   d="m 9196,1061 h 1845"
   id="path131" /><path
   fill="#3aa5ac"
   stroke="none"
   d="m 8909,1061 300,100 V 961 Z"
   id="path132" /><path
   fill="#3aa5ac"
   stroke="none"
   d="m 11328,1061 -300,-100 v 200 z"
   id="path133" /><rect
   class="BoundingBox"
   stroke="none"
   fill="none"
   x="12369"
   y="3362"
   width="1550"
   height="2154"
   id="rect133" /><path
   fill="#a6a6a6"
   stroke="none"
   d="m 12387,3569 v 0 l 1,9 3,10 4,9 7,9 8,10 11,9 12,9 13,8 16,9 17,8 19,9 20,7 22,8 24,7 25,8 26,6 28,7 29,6 30,5 31,6 32,5 33,4 34,4 35,4 35,3 36,3 37,2 37,2 37,2 h 38 l 37,1 h 38 l 37,-1 h 38 l 37,-2 37,-2 37,-2 36,-3 35,-3 35,-4 34,-4 33,-4 32,-5 31,-6 30,-5 29,-6 28,-7 26,-6 25,-8 24,-7 22,-8 20,-7 19,-9 17,-8 16,-9 13,-8 12,-9 11,-9 8,-10 7,-9 4,-9 3,-10 1,-9 h 1 v 0 0 0 0 0 0 0 0 0 0 0 0 0 0 0 1739 0 0 0 0 0 0 0 0 0 0 0 0 0 0 0 0 h -1 l -1,9 -3,10 -4,9 -7,9 -8,10 -11,9 -12,9 -13,8 -16,9 -17,8 -19,9 -20,7 -22,8 -24,7 -25,8 -26,6 -28,7 -29,6 -30,5 -31,6 -32,5 -33,4 -34,4 -35,4 -35,3 -36,3 -37,2 -37,2 -37,2 h -38 l -37,1 h -38 l -37,-1 h -38 l -37,-2 -37,-2 -37,-2 -36,-3 -35,-3 -35,-4 -34,-4 -33,-4 -32,-5 -31,-6 -30,-5 -29,-6 -28,-7 -26,-6 -25,-8 -24,-7 -22,-8 -20,-7 -19,-9 -17,-8 -16,-9 -13,-8 -12,-9 -11,-9 -8,-10 -7,-9 -4,-9 -3,-10 -1,-9 z"
   id="path134" /><path
   fill="#a6a6a6"
   stroke="none"
   d="m 12387,3569 v 0 0 0 0 0 0 0 0 0 0 0 0 0 0 0 0 0 0 0 0 0 0 0 0 0 0 0 0 0 0 0 0 0 l 1,-9 3,-10 4,-9 7,-9 8,-10 10,-9 12,-9 14,-8 16,-9 17,-8 19,-8 20,-8 22,-8 23,-7 25,-7 27,-7 27,-7 29,-6 30,-5 31,-6 32,-5 33,-4 34,-4 35,-4 35,-3 36,-3 36,-2 37,-2 38,-1 37,-1 38,-1 h 37 38 l 37,1 38,2 36,2 37,2 36,3 35,3 35,4 34,4 33,4 32,5 32,5 30,6 28,6 28,6 27,7 25,7 23,7 22,8 21,8 19,8 17,8 16,9 13,9 13,9 10,9 8,9 7,9 5,9 3,10 1,9 -1,10 -2,9 -5,9 -6,10 -9,9 -10,9 -11,9 -14,9 -15,8 -17,9 -19,8 -20,8 -22,7 -23,8 -25,7 -26,7 -28,6 -28,6 -30,6 -31,5 -32,5 -33,5 -34,4 -35,4 -35,3 -36,3 -36,2 -37,2 -37,1 -38,1 -37,1 h -38 -38 l -37,-1 -37,-2 -37,-1 -37,-3 -36,-2 -35,-4 -35,-3 -34,-4 -33,-5 -33,-5 -31,-5 -30,-5 -29,-6 -28,-7 -26,-6 -25,-7 -24,-8 -22,-7 -21,-8 -19,-8 -18,-9 -15,-8 -14,-9 -13,-9 -10,-9 -9,-9 -7,-9 -5,-10 -3,-9 z"
   id="path135" /><path
   fill="none"
   stroke="#595959"
   stroke-width="35"
   stroke-linejoin="miter"
   d="m 13900,3569 v 0 0 0 0 0 0 0 0 0 0 0 0 0 0 0 0 h -1 l -1,9 -3,10 -4,9 -7,9 -8,10 -10,9 -12,9 -14,8 -16,9 -17,8 -19,8 -20,8 -22,8 -23,7 -25,7 -27,7 -27,7 -29,6 -30,5 -31,6 -32,5 -33,4 -34,4 -35,4 -35,3 -36,3 -36,2 -37,2 -38,1 -37,1 -38,1 h -37 -38 l -37,-1 -38,-2 -36,-2 -37,-2 -36,-3 -35,-3 -35,-4 -34,-4 -33,-4 -32,-5 -32,-5 -30,-6 -28,-6 -28,-6 -27,-7 -25,-7 -23,-7 -22,-8 -21,-8 -19,-8 -17,-8 -16,-9 -13,-9 -13,-9 -10,-9 -8,-9 -7,-9 -5,-9 -3,-10 -1,-9 1,-10 2,-9 5,-9 6,-10 9,-9 10,-9 11,-9 14,-9 15,-8 17,-9 19,-8 20,-8 22,-7 23,-8 25,-7 26,-7 28,-6 28,-6 30,-6 31,-5 32,-5 33,-5 34,-4 35,-4 35,-3 36,-3 36,-2 37,-2 37,-1 38,-1 37,-1 h 38 38 l 37,1 37,2 37,1 37,3 36,2 35,4 35,3 34,4 33,5 33,5 31,5 30,5 29,6 28,7 26,6 25,7 24,8 22,7 21,8 19,8 18,9 15,8 14,9 13,9 10,9 9,9 7,9 5,10 3,9 2,1750 v 0 0 0 0 0 0 0 0 0 0 0 0 0 0 0 0 h -1 l -1,9 -3,10 -4,9 -7,9 -8,10 -11,9 -12,9 -13,8 -16,9 -17,8 -19,9 -20,7 -22,8 -24,7 -25,8 -26,6 -28,7 -29,6 -30,5 -31,6 -32,5 -33,4 -34,4 -35,4 -35,3 -36,3 -37,2 -37,2 -37,2 h -38 l -37,1 h -38 l -37,-1 h -38 l -37,-2 -37,-2 -37,-2 -36,-3 -35,-3 -35,-4 -34,-4 -33,-4 -32,-5 -31,-6 -30,-5 -29,-6 -28,-7 -26,-6 -25,-8 -24,-7 -22,-8 -20,-7 -19,-9 -17,-8 -16,-9 -13,-8 -12,-9 -11,-9 -8,-10 -7,-9 -4,-9 -3,-10 -1,-9 V 3569"
   id="path136" /><text
   class="SVGTextShape"
   id="text138"
   x="-4093"
   y="-8614"><tspan
     class="TextParagraph"
     id="tspan138"><tspan
       class="TextPosition"
       x="12705"
       y="4787"
       id="tspan137"><tspan
         font-family="'Source Sans Pro', sans-serif"
         font-size="635px"
         font-weight="400"
         fill="#ffffff"
         stroke="none"
         style="white-space:pre"
         id="tspan136">DB</tspan></tspan></tspan></text><rect
   class="BoundingBox"
   stroke="none"
   fill="none"
   x="13030"
   y="1984"
   width="211"
   height="1398"
   id="rect138" /><path
   fill="none"
   stroke="#3aa5ac"
   stroke-width="18"
   stroke-linejoin="miter"
   d="m 13130,2271 10,823"
   id="path138" /><path
   fill="#3aa5ac"
   stroke="none"
   d="m 13127,1984 -97,301 200,-2 z"
   id="path139" /><path
   fill="#3aa5ac"
   stroke="none"
   d="m 13143,3381 97,-301 -200,2 z"
   id="path140" /><rect
   class="BoundingBox"
   stroke="none"
   fill="none"
   x="18326"
   y="121"
   width="3636"
   height="1883"
   id="rect140" /><path
   fill="#3aa5ac"
   stroke="none"
   d="m 18344,139 h 3599 v 1846 h -3599 z"
   id="path141" /><path
   fill="none"
   stroke="#28787d"
   stroke-width="35"
   stroke-linejoin="miter"
   d="m 18344,139 h 3599 v 1846 h -3599 z"
   id="path142" /><text
   class="SVGTextShape"
   id="text144"
   x="-4093"
   y="-8614"><tspan
     class="TextParagraph"
     id="tspan144"><tspan
       class="TextPosition"
       x="19209"
       y="1315"
       id="tspan143"><tspan
         font-family="'Source Sans Pro', sans-serif"
         font-size="635px"
         font-weight="400"
         fill="#ffffff"
         stroke="none"
         style="white-space:pre"
         id="tspan142">server</tspan></tspan></tspan></text><rect
   class="BoundingBox"
   stroke="none"
   fill="none"
   x="18749"
   y="544"
   width="3636"
   height="1883"
   id="rect144" /><path
   fill="#3aa5ac"
   stroke="none"
   d="m 18767,562 h 3599 v 1846 h -3599 z"
   id="path144" /><path
   fill="none"
   stroke="#28787d"
   stroke-width="35"
   stroke-linejoin="miter"
   d="m 18767,562 h 3599 v 1846 h -3599 z"
   id="path145" /><text
   class="SVGTextShape"
   id="text147"
   x="-4093"
   y="-8614"><tspan
     class="TextParagraph"
     id="tspan147"><tspan
       class="TextPosition"
       x="19632"
       y="1738"
       id="tspan146"><tspan
         font-family="'Source Sans Pro', sans-serif"
         font-size="635px"
         font-weight="400"
         fill="#ffffff"
         stroke="none"
         style="white-space:pre"
         id="tspan145">server</tspan></tspan></tspan></text><rect
   class="BoundingBox"
   stroke="none"
   fill="none"
   x="19172"
   y="967"
   width="3636"
   height="1883"
   id="rect147" /><path
   fill="#3aa5ac"
   stroke="none"
   d="m 19190,985 h 3599 v 1846 h -3599 z"
   id="path147" /><path
   fill="none"
   stroke="#28787d"
   stroke-width="35"
   stroke-linejoin="miter"
   d="m 19190,985 h 3599 v 1846 h -3599 z"
   id="path148" /><text
   class="SVGTextShape"
   id="text150"
   x="-4093"
   y="-8614"><tspan
     class="TextParagraph"
     id="tspan150"><tspan
       class="TextPosition"
       x="20127"
       y="2161"
       id="tspan149"><tspan
         font-family="'Source Sans Pro', sans-serif"
         font-size="635px"
         font-weight="400"
         fill="#ffffff"
         stroke="none"
         style="white-space:pre"
         id="tspan148">agent</tspan></tspan></tspan></text><rect
   class="BoundingBox"
   stroke="none"
   fill="none"
   x="14926"
   y="961"
   width="3419"
   height="202"
   id="rect151" /><path
   fill="none"
   stroke="#3aa5ac"
   stroke-width="18"
   stroke-linejoin="miter"
   d="m 15213,1061 2844,1"
   id="path151" /><path
   fill="#3aa5ac"
   stroke="none"
   d="m 14926,1061 300,100 V 961 Z"
   id="path152" /><path
   fill="#3aa5ac"
   stroke="none"
   d="m 18344,1062 -300,-100 v 200 z"
   id="path153" /><rect
   class="BoundingBox"
   stroke="none"
   fill="none"
   x="20296.887"
   y="3059.4976"
   width="1091"
   height="2021"
   id="rect153" /><path
   fill="#a6a6a6"
   stroke="none"
   d="m 20568.887,3059.4976 v 1476 h -272 l 545,544 545,-544 h -273 v -1476 z"
   id="path154" />
   
  
 
<text
   xml:space="preserve"
   style="font-size:635px;font-family:Sans;-inkscape-font-specification:Sans;text-align:center;letter-spacing:0px;writing-mode:lr-tb;direction:ltr;text-anchor:middle;fill:none;stroke:#ff0000;stroke-width:3.4;stroke-miterlimit:0;paint-order:stroke fill markers"
   x="1505.1418"
   y="1260.2334"
   id="text1"><tspan
     sodipodi:role="line"
     id="tspan1"
     x="1505.1418"
     y="1260.2334"
     style="font-size:635px;fill:#000000;fill-opacity:1;stroke:#000000">Model</tspan></text><rect
   style="fill:#a6a6a6;fill-opacity:1;stroke:#808080;stroke-width:79.7;stroke-miterlimit:0;paint-order:stroke fill markers;stroke-opacity:1;stroke-dasharray:none"
   id="rect1"
   width="4413.1934"
   height="1806.1718"
   x="18402.506"
   y="5401.4756" /><text
   xml:space="preserve"
   style="font-size:635px;font-family:Sans;-inkscape-font-specification:Sans;text-align:center;letter-spacing:0px;writing-mode:lr-tb;direction:ltr;text-anchor:middle;fill:#a6a6a6;fill-opacity:1;stroke:#000000;stroke-width:3.4;stroke-miterlimit:0;paint-order:stroke fill markers"
   x="20634.66"
   y="6151.2075"
   id="text2"><tspan
     sodipodi:role="line"
     id="tspan2"
     x="20634.66"
     y="6151.2075"
     style="fill:#ffffff">Managed</tspan><tspan
     sodipodi:role="line"
     x="20634.66"
     y="6944.9575"
     id="tspan3"
     style="fill:#ffffff">Infrastructure</tspan></text></svg>
